<?xml version="1.0" encoding="utf-8"?>
<!-- Generator: Adobe Illustrator 28.0.0, SVG Export Plug-In . SVG Version: 6.00 Build 0)  -->
<svg version="1.1" id="Layer_1" xmlns="http://www.w3.org/2000/svg" xmlns:xlink="http://www.w3.org/1999/xlink" x="0px" y="0px"
	 viewBox="0 0 576 512" style="enable-background:new 0 0 576 512;" xml:space="preserve">
<style type="text/css">
	.st0{fill:#5B9AD5;}
</style>
<path class="st0" d="M163.9,136.9c-29.4-29.8-29.4-78.2,0-108s77-29.8,106.4,0l17.7,18l17.7-18c29.4-29.8,77-29.8,106.4,0
	s29.4,78.2,0,108L310.5,240.1c-6.2,6.3-14.3,9.4-22.5,9.4s-16.3-3.1-22.5-9.4L163.9,136.9z M568.2,336.3
	c13.1,17.8,9.3,42.8-8.5,55.9l-126.6,93.3c-23.4,17.2-51.6,26.5-80.7,26.5H192H32c-17.7,0-32-14.3-32-32v-64c0-17.7,14.3-32,32-32
	h36.8l44.9-36c22.7-18.2,50.9-28,80-28H272h16h64c17.7,0,32,14.3,32,32s-14.3,32-32,32h-64h-16c-8.8,0-16,7.2-16,16s7.2,16,16,16
	h120.6l119.7-88.2C530.1,314.7,555.1,318.5,568.2,336.3z M193.6,384L193.6,384h-0.9C193,384,193.3,384,193.6,384z"/>
</svg>
