<?xml version="1.0" encoding="utf-8"?>
<!-- Generator: Adobe Illustrator 28.0.0, SVG Export Plug-In . SVG Version: 6.00 Build 0)  -->
<svg version="1.1" id="Layer_1" xmlns="http://www.w3.org/2000/svg" xmlns:xlink="http://www.w3.org/1999/xlink" x="0px" y="0px"
	 viewBox="0 0 640 512" style="enable-background:new 0 0 640 512;" xml:space="preserve">
<style type="text/css">
	.st0{fill:#5B9AD5;}
</style>
<path class="st0" d="M102.6,83.5c13.4,0,24.2,11,24.2,24.7v197.2h169V182c0-13.6,10.8-24.7,24.2-24.7h169.1c40,0,72.4,33.2,72.4,74
	v172.5c0,13.6-10.8,24.7-24.2,24.7s-24.2-11-24.2-24.7v-24.7h-169H320H126.8v24.7c0,13.6-10.8,24.7-24.2,24.7s-24.1-11-24.1-24.7
	V108.2C78.5,94.5,89.3,83.5,102.6,83.5z M211.4,157.5c33.3,0,60.4,27.6,60.4,61.6s-27,61.6-60.4,61.6S151,253.1,151,219.1
	S178,157.5,211.4,157.5z"/>
</svg>
