<?xml version="1.0" encoding="utf-8"?>
<!-- Generator: Adobe Illustrator 28.0.0, SVG Export Plug-In . SVG Version: 6.00 Build 0)  -->
<svg version="1.1" id="Layer_1" xmlns="http://www.w3.org/2000/svg" xmlns:xlink="http://www.w3.org/1999/xlink" x="0px" y="0px"
	 viewBox="0 0 640 512" style="enable-background:new 0 0 640 512;" xml:space="preserve">
<style type="text/css">
	.st0{fill:#5B9AD5;}
</style>
<path class="st0" d="M52.6,149c0-29.5,24-53.5,53.5-53.5h160.4h40.1H320h213.9c29.5,0,53.5,24,53.5,53.5v214
	c0,29.5-24,53.5-53.5,53.5H320h-13.4h-40.1H106.1c-29.5,0-53.5-24-53.5-53.5V149z M320,149v214h213.9V149H320z M201.6,189.1
	c-2.7-6-8.7-10-15.3-10s-12.6,3.9-15.3,10l-53.5,120.4c-3.7,8.4,0.1,18.3,8.5,22s18.3-0.1,22-8.5l7.5-16.8H217l7.5,16.8
	c3.7,8.4,13.6,12.2,22,8.5s12.2-13.6,8.5-22L201.6,189.1L201.6,189.1z M186.3,237l15.9,35.8h-31.8L186.3,237z M426.9,179.1
	c9.2,0,16.8,7.6,16.8,16.8v3.4h36.8h13.4c9.2,0,16.8,7.6,16.8,16.8s-7.6,16.8-16.8,16.8h-1.6l-1.3,3.7c-7.5,20.4-18.7,39-33.1,54.7
	c0.8,0.5,1.5,1,2.3,1.3l15.8,9.5c7.9,4.8,10.4,15,5.7,22.9c-4.7,7.9-15,10.4-22.9,5.7l-15.8-9.5c-3.7-2.3-7.4-4.6-10.9-7.1
	c-8.9,6.2-18.3,11.7-28.4,16.2l-3,1.3c-8.4,3.7-18.3-0.1-22-8.5s0.1-18.3,8.5-22l3-1.3c5.4-2.4,10.5-5.1,15.5-8.2l-10.2-10.2
	c-6.5-6.5-6.5-17.1,0-23.7c6.5-6.5,17.1-6.5,23.6,0l12.2,12.2l0.4,0.4c10.3-10.9,18.8-23.7,24.9-37.6h-29.4H367
	c-9.2,0-16.8-7.6-16.8-16.8s7.6-16.8,16.8-16.8h43.3v-3.4C410.3,186.6,417.7,179,426.9,179.1L426.9,179.1z"/>
</svg>
