<?xml version="1.0" encoding="utf-8"?>
<!-- Generator: Adobe Illustrator 28.0.0, SVG Export Plug-In . SVG Version: 6.00 Build 0)  -->
<svg version="1.1" id="Layer_1" xmlns="http://www.w3.org/2000/svg" xmlns:xlink="http://www.w3.org/1999/xlink" x="0px" y="0px"
	 viewBox="0 0 640 512" style="enable-background:new 0 0 640 512;" xml:space="preserve">
<style type="text/css">
	.st0{fill:#5B9AD5;}
</style>
<path class="st0" d="M221.4,47.8c-25.1,0-45.9,44.5-45.9,70.1v86.5L63.8,270.8c-4,2.4-6.4,6.6-6.4,11.2v52c0,4.2,2,7.9,5.3,10.4
	c3.2,2.5,7.6,3.2,11.5,2l101.2-30.1v66l-41,32.5c-3.2,2.5-4.9,6.1-4.9,10.2v26c0,4.2,2,8.1,5.4,10.6c3.3,2.5,7.8,3.1,11.8,1.8
	l74.7-24.7l74.1,24.5c-1.3-3.8-2-7.9-2-12.2v-26.5c-14.9-8.5-25.2-24.1-26.2-42.2l-0.1-0.1v-2.8v-67.1v-115v-0.9l0,0v-78.8
	C267.4,92.3,247.3,47.8,221.4,47.8z M293.6,190.9v182.2c0,17,11,31.5,26.3,36.9v34.7c0,10.8,8.8,19.5,19.7,19.5h13.1
	c10.9,0,19.7-8.7,19.7-19.5v-32.5h131.2v32.5c0,10.8,8.8,19.5,19.7,19.5h13.1c10.9,0,19.7-8.7,19.7-19.5V410
	c15.3-5.4,26.3-19.9,26.3-36.9V190.9c0-21.6-17.7-39-39.3-39H333.3C311.2,151.9,293.6,169.4,293.6,190.9z M359.1,255
	c2.7-7.1,9.2-11.9,16.8-11.9H500c7.5,0,14.1,4.9,16.8,11.9l13,40.1H346.1L359.1,255z M523.2,334.1c10.8,0,19.7,8.7,19.7,19.5
	s-8.8,19.5-19.7,19.5s-19.7-8.7-19.7-19.5C503.5,342.8,512.3,334.1,523.2,334.1z M333,353.6c0-10.8,8.8-19.5,19.7-19.5
	c10.8,0,19.7,8.7,19.7,19.5s-8.8,19.5-19.7,19.5S333,364.4,333,353.6z"/>
</svg>
