<?xml version="1.0" encoding="utf-8"?>
<!-- Generator: Adobe Illustrator 28.1.0, SVG Export Plug-In . SVG Version: 6.00 Build 0)  -->
<svg version="1.1" id="Layer_1" xmlns="http://www.w3.org/2000/svg" xmlns:xlink="http://www.w3.org/1999/xlink" x="0px" y="0px"
	 viewBox="0 0 14 14" style="enable-background:new 0 0 14 14;" xml:space="preserve">
<style type="text/css">
	.st0{fill:#5B9AD5;}
</style>
<path class="st0" d="M6.2,4H4.9H4.2H4v0.2v0.7v0.8v1.7L2.2,6c0-0.3,0.2-0.7,0.5-0.9l0.4-0.3V4c0-0.5,0.4-0.9,0.9-0.9h1.4l0.9-0.7
	C6.6,2.3,6.8,2.2,7,2.2s0.4,0.1,0.6,0.2l0.9,0.7H10c0.5,0,0.9,0.4,0.9,0.9v0.8l0.4,0.3c0.3,0.2,0.5,0.5,0.5,0.9L10,7.3V5.7V4.9V4.2
	V4H9.8H9.1H7.8H6.2z M2.2,10.6V6.7l4.1,3C6.5,9.9,6.7,10,7,10s0.5-0.1,0.7-0.2l4.1-3v3.9l0,0c0,0.7-0.5,1.2-1.2,1.2H3.4
	C2.7,11.8,2.2,11.3,2.2,10.6L2.2,10.6z M5.5,5.2h3c0.2,0,0.3,0.1,0.3,0.3c0,0.2-0.1,0.3-0.3,0.3h-3c-0.2,0-0.3-0.1-0.3-0.3
	C5.2,5.3,5.3,5.2,5.5,5.2z M5.5,6.4h3c0.2,0,0.3,0.1,0.3,0.3C8.8,6.9,8.7,7,8.5,7h-3C5.3,7,5.2,6.9,5.2,6.7C5.2,6.5,5.3,6.4,5.5,6.4
	z"/>
</svg>
