<?xml version="1.0" encoding="utf-8"?>
<!-- Generator: Adobe Illustrator 28.1.0, SVG Export Plug-In . SVG Version: 6.00 Build 0)  -->
<svg version="1.1" id="Layer_1" xmlns="http://www.w3.org/2000/svg" xmlns:xlink="http://www.w3.org/1999/xlink" x="0px" y="0px"
	 viewBox="0 0 16 16" style="enable-background:new 0 0 16 16;" xml:space="preserve">
<style type="text/css">
	.st0{fill:#FFFFFF;}
</style>
<path class="st0" d="M1.5,2C0.7,2,0,2.7,0,3.5C0,4,0.2,4.4,0.6,4.7l6.8,5.1c0.4,0.3,0.8,0.3,1.2,0l6.8-5.1C15.8,4.4,16,4,16,3.5
	C16,2.7,15.3,2,14.5,2C14.5,2,1.5,2,1.5,2z M0,5.5V12c0,1.1,0.9,2,2,2h12c1.1,0,2-0.9,2-2V5.5l-6.8,5.1c-0.7,0.5-1.7,0.5-2.4,0
	L0,5.5z"/>
</svg>
