<?xml version="1.0" encoding="utf-8"?>
<!-- Generator: Adobe Illustrator 28.1.0, SVG Export Plug-In . SVG Version: 6.00 Build 0)  -->
<svg version="1.1" id="Layer_1" xmlns="http://www.w3.org/2000/svg" xmlns:xlink="http://www.w3.org/1999/xlink" x="0px" y="0px"
	 viewBox="0 0 14 14" style="enable-background:new 0 0 14 14;" xml:space="preserve">
<style type="text/css">
	.st0{fill:#5B9AD5;}
</style>
<path class="st0" d="M12,7c0-2.7-2.2-5-5-5S2,4.3,2,7c0,2.3,1.6,4.3,3.8,4.8V8.5h-1V7h1V6.4c0-1.7,0.8-2.5,2.4-2.5
	c0.3,0,0.9,0.1,1.1,0.1v1.4c-0.1,0-0.3,0-0.6,0c-0.8,0-1.1,0.3-1.1,1.1V7h1.6L8.9,8.5H7.6V12C10.1,11.7,12,9.6,12,7L12,7z"/>
</svg>
