<?xml version="1.0" encoding="utf-8"?>
<!-- Generator: Adobe Illustrator 28.1.0, SVG Export Plug-In . SVG Version: 6.00 Build 0)  -->
<svg version="1.1" id="Layer_1" xmlns="http://www.w3.org/2000/svg" xmlns:xlink="http://www.w3.org/1999/xlink" x="0px" y="0px"
	 viewBox="0 0 12.2 14" style="enable-background:new 0 0 12.2 14;" xml:space="preserve">
<style type="text/css">
	.st0{fill:#5B9AD5;}
</style>
<path class="st0" d="M6.1,4.6C4.8,4.6,3.7,5.7,3.7,7s1.1,2.4,2.4,2.4S8.5,8.3,8.5,7S7.5,4.6,6.1,4.6z M6.1,8.5
	C5.3,8.5,4.6,7.9,4.6,7s0.7-1.5,1.6-1.5S7.7,6.1,7.7,7S7,8.5,6.1,8.5z M9.2,4.5c0,0.3-0.3,0.6-0.6,0.6c-0.3,0-0.6-0.2-0.6-0.6
	C8.1,4.2,8.3,4,8.6,4C8.9,4,9.2,4.2,9.2,4.5z M10.8,5.1c0-0.7-0.2-1.4-0.8-1.9c-0.6-0.5-1.2-0.7-2-0.7c-0.8,0-3.1,0-3.9,0
	c-0.8,0-1.4,0.2-2,0.7S1.5,4.3,1.5,5.1c0,0.8,0,3.1,0,3.8c0,0.7,0.2,1.4,0.8,1.9c0.6,0.5,1.2,0.7,2,0.7c0.8,0,3.1,0,3.9,0
	c0.8,0,1.4-0.2,2-0.7c0.6-0.5,0.7-1.2,0.8-1.9C10.8,8.1,10.8,5.9,10.8,5.1z M9.8,9.7c-0.2,0.4-0.5,0.7-0.9,0.9
	c-0.6,0.2-2.1,0.2-2.8,0.2S4,10.9,3.4,10.6c-0.4-0.2-0.7-0.5-0.9-0.9C2.2,9.1,2.3,7.7,2.3,7S2.2,4.9,2.5,4.3
	c0.2-0.4,0.5-0.7,0.9-0.9C4,3.1,5.4,3.2,6.1,3.2s2.2-0.1,2.8,0.2c0.4,0.2,0.7,0.5,0.9,0.9C10,4.9,10,6.3,10,7S10,9.1,9.8,9.7z"/>
</svg>
