<?xml version="1.0" encoding="utf-8"?>
<!-- Generator: Adobe Illustrator 28.1.0, SVG Export Plug-In . SVG Version: 6.00 Build 0)  -->
<svg version="1.1" id="Layer_1" xmlns="http://www.w3.org/2000/svg" xmlns:xlink="http://www.w3.org/1999/xlink" x="0px" y="0px"
	 viewBox="0 0 16 16" style="enable-background:new 0 0 16 16;" xml:space="preserve">
<style type="text/css">
	.st0{fill:#FFFFFF;}
</style>
<path class="st0" d="M5.2,0.8C4.9,0.2,4.3-0.1,3.7,0L0.9,0.8C0.4,0.9,0,1.4,0,2c0,7.7,6.3,14,14,14c0.6,0,1.1-0.4,1.2-0.9l0.8-2.8
	c0.2-0.6-0.1-1.2-0.7-1.5l-3-1.2c-0.5-0.2-1.1-0.1-1.4,0.4l-1.3,1.5c-2.2-1-4-2.8-5-5L6,5.2c0.4-0.3,0.6-0.9,0.4-1.4L5.2,0.8
	L5.2,0.8z"/>
</svg>
