<?xml version="1.0" encoding="utf-8"?>
<!-- Generator: Adobe Illustrator 28.1.0, SVG Export Plug-In . SVG Version: 6.00 Build 0)  -->
<svg version="1.1" id="Layer_1" xmlns="http://www.w3.org/2000/svg" xmlns:xlink="http://www.w3.org/1999/xlink" x="0px" y="0px"
	 viewBox="0 0 14 14" style="enable-background:new 0 0 14 14;" xml:space="preserve">
<style type="text/css">
	.st0{fill:#5B9AD5;}
</style>
<path class="st0" d="M5.2,2.5C5.1,2.1,4.7,1.9,4.3,2.1L2.6,2.5C2.3,2.6,2,2.9,2,3.3C2,8.1,5.9,12,10.7,12c0.3,0,0.7-0.2,0.8-0.6
	l0.5-1.7c0.1-0.4-0.1-0.8-0.5-0.9L9.6,8C9.3,7.9,8.9,8,8.7,8.2l-0.8,1C6.6,8.5,5.5,7.4,4.8,6.1l1-0.8C6,5.1,6.1,4.7,6,4.4L5.2,2.5
	L5.2,2.5z"/>
</svg>
