<?xml version="1.0" encoding="utf-8"?>
<!-- Generator: Adobe Illustrator 28.0.0, SVG Export Plug-In . SVG Version: 6.00 Build 0)  -->
<svg version="1.1" id="Layer_1" xmlns="http://www.w3.org/2000/svg" xmlns:xlink="http://www.w3.org/1999/xlink" x="0px" y="0px"
	 viewBox="0 0 512 512" style="enable-background:new 0 0 512 512;" xml:space="preserve">
<style type="text/css">
	.st0{fill:#5B9AD5;}
</style>
<path class="st0" d="M176,56v40h160V56c0-4.4-3.6-8-8-8H184C179.6,48,176,51.6,176,56z M128,96V56c0-30.9,25.1-56,56-56h144
	c30.9,0,56,25.1,56,56v40v32v352H128V128V96z M64,96h32v384H64c-35.3,0-64-28.7-64-64V160C0,124.7,28.7,96,64,96z M448,480h-32V96
	h32c35.3,0,64,28.7,64,64v256C512,451.3,483.3,480,448,480z"/>
</svg>
